<svg xmlns="http://www.w3.org/2000/svg" width="23.317" height="26.039" viewBox="0 0 23.317 26.039">
  <g id="Group_27" data-name="Group 27" transform="translate(-71.455 -727)">
    <g id="Group_9" data-name="Group 9" transform="translate(71.455 727)">
      <path id="Path_65" data-name="Path 65" d="M28.6,14.282V8.071H12.455V27.944h6.559Zm-5.9-3.261h2.484a.466.466,0,0,1,0,.932H22.7a.466.466,0,1,1,0-.932Zm-5.279,3.105h6.21a.466.466,0,0,1,0,.932h-6.21a.466.466,0,0,1,0-.932ZM16.958,17.7a.466.466,0,0,1,.466-.466h6.21a.466.466,0,0,1,0,.932h-6.21A.466.466,0,0,1,16.958,17.7Z" transform="translate(-12.455 -8.071)" fill="#aaa"/>
      <path id="Path_66" data-name="Path 66" d="M55.568,63.339h2.76V59.407Z" transform="translate(-42.181 -43.466)" fill="#aaa"/>
    </g>
    <path id="Path_67" data-name="Path 67" d="M45.259,14.389,32.1,33.137l-1.464,5.329,4.514-3.189L48.309,16.53Zm.227,1.3,1.525,1.07-1.873,2.669-1.525-1.07Z" transform="translate(46.463 714.573)" fill="#aaa"/>
  </g>
</svg>
