<svg id="Group_30" data-name="Group 30" xmlns="http://www.w3.org/2000/svg" width="30.864" height="19" viewBox="0 0 30.864 19">
  <g id="Group_5" data-name="Group 5">
    <path id="Path_57" data-name="Path 57" d="M22.994,2318H0v.975H22.994Z" transform="translate(0 -2309.275)" fill="#aaa"/>
    <path id="Path_58" data-name="Path 58" d="M22.994,2727H0v8.107a.63.63,0,0,0,.629.629H22.365a.635.635,0,0,0,.629-.629Zm-21.153,7.121H9.222v.561H1.841Zm.376-4.008H6.512v1.683H1.923v-1.683Zm18.917,2.966a1.362,1.362,0,0,1-2.093,1.141,1.22,1.22,0,0,1-.23.117,1.355,1.355,0,1,1,0-2.515,1.18,1.18,0,0,1,.23.117A1.361,1.361,0,0,1,21.134,2733.078Z" transform="translate(0 -2716.736)" fill="#aaa"/>
    <path id="Path_59" data-name="Path 59" d="M0,1733.641H22.994v-1.012a.635.635,0,0,0-.629-.629H.629a.63.63,0,0,0-.629.629Z" transform="translate(0 -1725.481)" fill="#aaa"/>
    <path id="Path_60" data-name="Path 60" d="M2113.993,1.641V.629a.629.629,0,0,0-.628-.629h-21.737a.63.63,0,0,0-.628.629V1.641Z" transform="translate(-2083.13)" fill="#aaa"/>
    <path id="Path_61" data-name="Path 61" d="M2113.993,585.975V585H2091v.975Z" transform="translate(-2083.13 -582.798)" fill="#aaa"/>
    <path id="Path_62" data-name="Path 62" d="M2091,996.217h14.495a1.192,1.192,0,0,1,1.189,1.189v5.33h6.681a.629.629,0,0,0,.628-.629V994H2091Zm21.3,4.731a1.359,1.359,0,0,1-2.089,1.141,1.3,1.3,0,0,1-.229.117,1.356,1.356,0,1,1,0-2.518,1.325,1.325,0,0,1,.229.12A1.359,1.359,0,0,1,2112.3,1000.948Z" transform="translate(-2083.13 -990.259)" fill="#aaa"/>
  </g>
</svg>
