<svg xmlns="http://www.w3.org/2000/svg" width="33.81" height="21" viewBox="0 0 33.81 21">
  <path id="Path_88" data-name="Path 88" d="M3.45,40.965H20.635v-1.89A2.9,2.9,0,0,1,21.65,36.9c.56-.455,1.12-.875,1.645-1.225H6.04V22.59H26.585V25.5a3.8,3.8,0,0,1,1.89-.49h.7v-2.45A2.569,2.569,0,0,0,26.62,20H6.04a2.569,2.569,0,0,0-2.555,2.555V35.54a1.438,1.438,0,0,1-.315.91L1.84,38.06a.611.611,0,0,0-.14.42v.77A1.726,1.726,0,0,0,3.45,40.965ZM13.565,38.27h5.53v.175a.866.866,0,0,1-.875.875H14.44a.866.866,0,0,1-.875-.875Zm21.455-.21a1.312,1.312,0,0,1,.49,1.05V41H22.07V39.11a1.418,1.418,0,0,1,.49-1.05,22.726,22.726,0,0,1,3.92-2.52c.035-.035.07-.07.07-.105v-2.66a1.191,1.191,0,0,1-.56-1.05V28.96a2.5,2.5,0,0,1,2.485-2.485h.63A2.5,2.5,0,0,1,31.59,28.96v2.765a1.28,1.28,0,0,1-.56,1.05v2.66c0,.035.035.105.07.105A21.416,21.416,0,0,1,35.02,38.06Zm-15.3-12.215-.175-.035a3.946,3.946,0,0,1-.63-.1,6.682,6.682,0,0,1-2.17-1.015.779.779,0,0,0-.455-.175.889.889,0,0,0-.455.175,5.511,5.511,0,0,1-2.9,1.12.625.625,0,0,0-.665.7v2.87a3.923,3.923,0,0,0,.105.84,3.66,3.66,0,0,0,1.05,1.785,6.9,6.9,0,0,0,2.66,1.645.519.519,0,0,0,.245.035h0a.659.659,0,0,0,.28-.07l.28-.105c.245-.1.455-.21.7-.315a5.748,5.748,0,0,0,2.03-1.68,3.213,3.213,0,0,0,.7-1.855c.035-.385.035-.84.035-1.26V26.475A.627.627,0,0,0,19.725,25.845Zm-.35,3.815a2.186,2.186,0,0,1-.525,1.3,5.479,5.479,0,0,1-2.345,1.68c-.07.035-.1.035-.175.07V29.2H13.285v-2.45a6.661,6.661,0,0,0,3.045-1.19V29.2h3.045Z" transform="translate(-1.7 -20)" fill="#aaa"/>
</svg>
