<svg xmlns="http://www.w3.org/2000/svg" width="31.103" height="18.102" viewBox="0 0 31.103 18.102">
  <g id="Group_32" data-name="Group 32" transform="translate(-0.031 -41.743)">
    <g id="Group_3" data-name="Group 3" transform="translate(0.031 41.743)">
      <path id="Path_50" data-name="Path 50" d="M56.578,47.921c-.6-1.259-1.208-2.515-1.807-3.774-.31-.66-.61-1.326-.909-1.989a.55.55,0,0,0-.9-.277c-.769.526-3.088,2.113-4.4,2.127a7.423,7.423,0,0,1-2.051-.269,12.047,12.047,0,0,1-1.29-.433,6.163,6.163,0,0,0-1.9-.557A1.36,1.36,0,0,0,42.33,43l-.056.05-.534.49h0l-2.051,1.88c-.039.036-.076.076-.112.115a1.089,1.089,0,0,0-.129.106L37.4,47.52a1.133,1.133,0,0,0-.1.1.512.512,0,0,0-.061.07.673.673,0,0,0-.123.255,1.631,1.631,0,0,0,1.158,1.62,2.777,2.777,0,0,0,2.212-.481c.4-.293.844-.627,1.292-.965.123-.1.246-.188.369-.28a.188.188,0,0,1,.025-.019c.117-.093.235-.182.353-.271,0,0,0,0,0,0a2.19,2.19,0,0,1,1.177-.336,2.207,2.207,0,0,1,1.413.5c.008,0,.014.011.022.017.039.034.081.071.12.106l.031.031c.1.078.188.165.28.255.266.252.517.514.764.789l.92.923a1.591,1.591,0,0,1,.112.123c.041.036.08.07.12.11l1.967,1.963s0,0,0,0l.854.853a.671.671,0,0,0,.789-.135c.42-.349,1.065-.859,1.493-1.2.636-.5,3.133-2.287,3.777-2.776A.623.623,0,0,0,56.578,47.921Z" transform="translate(-25.562 -41.743)" fill="#aaa"/>
      <path id="Path_51" data-name="Path 51" d="M19.487,70.868a1.122,1.122,0,0,0-1.587,0l-1.966,1.966a1.122,1.122,0,0,0,1.586,1.588l1.966-1.967A1.122,1.122,0,0,0,19.487,70.868Z" transform="translate(-10.759 -61.578)" fill="#aaa"/>
      <path id="Path_52" data-name="Path 52" d="M27,76.561a1.122,1.122,0,0,0-1.587,0l-1.966,1.966a1.122,1.122,0,0,0,1.587,1.587L27,78.148A1.122,1.122,0,0,0,27,76.561Z" transform="translate(-15.932 -65.498)" fill="#aaa"/>
      <path id="Path_53" data-name="Path 53" d="M34.864,81.214a1.122,1.122,0,0,0-1.587,0l-1.966,1.967A1.122,1.122,0,1,0,32.9,84.768L34.864,82.8A1.123,1.123,0,0,0,34.864,81.214Z" transform="translate(-21.35 -68.704)" fill="#aaa"/>
      <path id="Path_54" data-name="Path 54" d="M42.684,88.13A1.107,1.107,0,0,0,42.772,87a1.114,1.114,0,0,0-.518-.518,1.112,1.112,0,0,0-1.072.051,1,1,0,0,0-.212.164L39,88.666a1.122,1.122,0,1,0,1.586,1.587l1.966-1.966A1,1,0,0,0,42.684,88.13Z" transform="translate(-26.649 -72.48)" fill="#aaa"/>
      <path id="Path_55" data-name="Path 55" d="M21.787,50.885a.643.643,0,0,0-.073-.073L21.3,50.4l-.073-.072-.638-.642-.369-.365-.543-.547-.033-.029-.161-.161-.223-.223a1.318,1.318,0,0,0-.314-.24,1.28,1.28,0,0,0-.445-.172,1.259,1.259,0,0,0-.331-.04,1.508,1.508,0,0,0-.777.212.887.887,0,0,0-.153.1,1.22,1.22,0,0,0-.16.138.144.144,0,0,0-.026.026c-.138.12-.284.241-.426.357s-.285.223-.43.332c-.084.062-.172.128-.259.186v0a9.99,9.99,0,0,1-1.281.766,2.686,2.686,0,0,1-3.77-1.109,1.1,1.1,0,0,1-.084-.179,1.4,1.4,0,0,1-.066-.244,1.482,1.482,0,0,1,.423-1.291q1.4-1.313,2.787-2.633c.346-.325.7-.653,1.05-.992.088-.084.179-.168.27-.255a1.37,1.37,0,0,0-.864-.288.759.759,0,0,0-.1-.007,11.581,11.581,0,0,0-3.337.474c-.047.011-.091.026-.138.036l-.077.022c-.143.051-.281.095-.423.131l-.15.044a5.781,5.781,0,0,1-.919.222,5.593,5.593,0,0,1-1.134.048,5.547,5.547,0,0,1-1.867-.591,21.846,21.846,0,0,1-2.531-1.539.631.631,0,0,0-.5-.124.65.65,0,0,0-.4.4c-.3.663-.6,1.331-.908,1.991C1.326,45.408.716,46.662.118,47.92a.622.622,0,0,0,.208.853c.645.492,3.143,2.276,3.778,2.779.095.077.2.161.313.248l.044.033c.2.149.383.281.529.394l1.688-1.688A1.818,1.818,0,0,1,8.965,50.3a1.756,1.756,0,0,1,.288.234,1.2,1.2,0,0,1,.113.123c.026.03.047.059.069.087s.047.067.069.1.047.083.069.12A.3.3,0,0,1,9.592,51c.015.033.033.066.044.1a.873.873,0,0,1,.036.087c.007.03.018.055.026.081a.648.648,0,0,1,.036.138c.011.04.018.077.026.117a1.081,1.081,0,0,1,.018.153.955.955,0,0,1,.007.179.07.07,0,0,1,.022-.007.928.928,0,0,1,.138-.032.741.741,0,0,1,.128-.019.388.388,0,0,1,.091-.011c.047,0,.091-.007.138-.007s.113,0,.164.007c.014,0,.029,0,.044,0a1.827,1.827,0,0,1,.313.065,1.615,1.615,0,0,1,.412.182.011.011,0,0,1,.011.007c.033.019.062.04.091.059a.769.769,0,0,1,.087.065.548.548,0,0,1,.069.059,1.157,1.157,0,0,1,.095.084c.04.04.073.081.11.12.015.018.029.036.043.059a1.013,1.013,0,0,1,.08.109.934.934,0,0,1,.08.136,1.536,1.536,0,0,1,.138.331.975.975,0,0,1,.037.138,1.023,1.023,0,0,1,.025.142,1.779,1.779,0,0,1,.645-.12A1.812,1.812,0,0,1,14.486,54.5a1.661,1.661,0,0,1,.077.376c0,.051.007.1.007.149a1.75,1.75,0,0,1,.233-.062c.047-.011.094-.014.142-.022h.037a1.205,1.205,0,0,1,.164-.011c.037,0,.073,0,.11,0a1.826,1.826,0,0,1,1.71,1.82,1.231,1.231,0,0,1-.011.168.006.006,0,0,1,0,.011,1,1,0,0,1-.015.117c0,.007,0,.011,0,.018a.882.882,0,0,1-.047.2.947.947,0,0,1-.044.132.027.027,0,0,1,0,.011c-.007.018-.015.04-.026.062s-.025.055-.036.08-.022.04-.032.062a1.69,1.69,0,0,1-.153.237.32.32,0,0,1-.029.037.6.6,0,0,1-.045.05.671.671,0,0,1-.087.1l-1.608,1.608a1.526,1.526,0,0,0,.74.194,1.5,1.5,0,0,0,.97-.347.075.075,0,0,0,.018-.015,1.1,1.1,0,0,0,.1-.091A1.566,1.566,0,0,0,17,58.86a1.541,1.541,0,0,0,.1-.51,1.534,1.534,0,0,0,2.268-1.6,1.54,1.54,0,0,0,2.5-1.491,1.518,1.518,0,0,0,1.882-.23,1.538,1.538,0,0,0,0-2.176Z" transform="translate(-0.031 -41.743)" fill="#aaa"/>
    </g>
  </g>
</svg>
