<svg xmlns="http://www.w3.org/2000/svg" width="24.83" height="25.836" viewBox="0 0 24.83 25.836">
  <g id="Group_28" data-name="Group 28" transform="translate(2519.727 -758)">
    <g id="Group_18" data-name="Group 18" transform="translate(-2503.509 775.225)">
      <path id="Path_87" data-name="Path 87" d="M9.306,5a4.306,4.306,0,1,0,4.306,4.306A4.306,4.306,0,0,0,9.306,5Zm1.448,2.288H9.634a1.306,1.306,0,0,1,.378.736h.742V8.4h-.739a1.31,1.31,0,0,1-1.3,1.133H8.371L10.408,11.7H9.895L7.858,9.53V9.156h.861A.936.936,0,0,0,9.636,8.4H7.858V8.023H9.632a.936.936,0,0,0-.913-.736H7.858V6.914h2.9v.374Z" transform="translate(-5 -5)" fill="#aaa"/>
    </g>
    <path id="Path_76" data-name="Path 76" d="M22.107,56.861l-.018.028s-.756-3.4-.932-5.1c-.023.034-.046.069-.073.1a2.229,2.229,0,0,1-.571.509l-3.689,1.6a3.809,3.809,0,0,0-1.642,1.109,11.651,11.651,0,0,0-1.909,5.058c.022,1.287.577,1.42.577,1.42a32.416,32.416,0,0,0,9.1,1.947,48.882,48.882,0,0,1,.929-7.173,4.659,4.659,0,0,1-.49-1.209A11.049,11.049,0,0,0,22.107,56.861Z" transform="translate(-2533 719.061)" fill="#aaa"/>
    <path id="Path_77" data-name="Path 77" d="M61.141,55.733c.152,0,.3.009.45.023-.091-.15-.187-.3-.289-.451A3.8,3.8,0,0,0,59.659,54.2a17.854,17.854,0,0,1-3.49-1.472c-.1-.061-.186-.124-.266-.186-.036-.041-.147-.118-.183-.16a1.279,1.279,0,0,1-.3-.317c-.179,1.725-.872,5.029-.872,5.029a9.716,9.716,0,0,0-1.271-1.711,4.355,4.355,0,0,1-.518,1.227,47,47,0,0,1,.855,7.116c.906-.083,2.1-.219,3.377-.427a4.913,4.913,0,0,1,4.146-7.563Z" transform="translate(-2560.344 718.876)" fill="#aaa"/>
    <path id="Path_78" data-name="Path 78" d="M41.438,22.052a2.508,2.508,0,0,1-.027-.342q.1-.119.195-.242l.04-.053a7.254,7.254,0,0,0,1.022-1.878,3.686,3.686,0,0,0,.647-1.466c.284-.795.2-1.2.07-1.406a5.176,5.176,0,0,0-.24-3.852,3.386,3.386,0,0,0-2.151-2.22,6.342,6.342,0,0,0-4.166-.41c-3.039.512-3.69,4.087-3.69,4.087a5.631,5.631,0,0,0,.274,2.695,3.354,3.354,0,0,0,.127,1.4,1.045,1.045,0,0,0,.487.848,7.047,7.047,0,0,0,1.2,2.384,2.142,2.142,0,0,1-.032.5,4.8,4.8,0,0,0,2.655,3.18,3.756,3.756,0,0,0,.445.144,3.784,3.784,0,0,0,.508-.181A5.181,5.181,0,0,0,41.438,22.052Z" transform="translate(-2546.724 747.999)" fill="#aaa"/>
  </g>
</svg>
