<svg xmlns="http://www.w3.org/2000/svg" width="19.289" height="33" viewBox="0 0 19.289 33">
  <g id="Group_31" data-name="Group 31" transform="translate(-22.262 -2.5)">
    <circle id="Ellipse_17" data-name="Ellipse 17" cx="3.508" cy="3.508" r="3.508" transform="translate(26.617 2.5)" fill="#aaa"/>
    <path id="Path_74" data-name="Path 74" d="M41.134,36.592H40.4l-.556-1.737a.345.345,0,0,0-.347-.243h-.972a1.425,1.425,0,0,0-.035-.382,21.627,21.627,0,0,0-1.424-4.168,20.325,20.325,0,0,0-2.5-3.786,3.11,3.11,0,0,0-2.4-1.077H28.006a3.051,3.051,0,0,0-2.327,1.042,13.4,13.4,0,0,0-3.2,6.877l-.208,1.459a1.411,1.411,0,0,0,1.181,1.6h.208a1.386,1.386,0,0,0,1.389-1.181l.208-1.459A10.6,10.6,0,0,1,27,29.125L26.721,35.2,25.644,48.609a1.585,1.585,0,1,0,3.161.243l.938-11.531h.764l.938,11.531a1.584,1.584,0,0,0,1.563,1.459h.139a1.59,1.59,0,0,0,1.459-1.7l-.556-6.46a1.4,1.4,0,0,1-.695-1.042L32.9,38.329a1.484,1.484,0,0,1-.938-1.355,1.46,1.46,0,0,1,1.424-1.459l.1-.347-.278-6.113a17.647,17.647,0,0,1,1.355,2.258,18.064,18.064,0,0,1,1.111,3.265h-.66a.418.418,0,0,0-.347.243l-.521,1.771h-.729a.382.382,0,1,0,0,.764h.382L34.4,40.9a.4.4,0,0,0,.382.347h5.036A.379.379,0,0,0,40.2,40.9l.59-3.543h.382a.385.385,0,0,0,.382-.382A.417.417,0,0,0,41.134,36.592Zm-5.106,3.091a.382.382,0,0,1-.764,0V38.224a.382.382,0,0,1,.764,0Zm1.632,0a.382.382,0,0,1-.764,0V38.224a.382.382,0,0,1,.764,0Zm1.667,0a.382.382,0,0,1-.764,0V38.224a.382.382,0,0,1,.764,0Zm-4.446-3.091.417-1.285h.695a1.413,1.413,0,0,0,1.459.59,1.514,1.514,0,0,0,.868-.59h.938l.417,1.285Z" transform="translate(0 -14.816)" fill="#aaa"/>
  </g>
</svg>
