<svg xmlns="http://www.w3.org/2000/svg" width="769.506" height="519.058" viewBox="0 0 769.506 519.058">
  <g id="undraw_digital_currency_qpak" transform="translate(0.001 0)">
    <circle id="Ellipse_122" data-name="Ellipse 122" cx="26.383" cy="26.383" r="26.383" transform="translate(471.176 64.853)" fill="#f2f2f2"/>
    <rect id="Rectangle_639" data-name="Rectangle 639" width="529.316" height="282.797" transform="matrix(0.853, 0.522, -0.522, 0.853, 147.588, 0)" fill="#f2f2f2"/>
    <path id="Path_2475" data-name="Path 2475" d="M756.12,519.878c-4.122-9.481-10.471-17.809-23.168-24.817a80.917,80.917,0,0,0-20.942-8.245,51.3,51.3,0,0,0,13.439-9.069,46.476,46.476,0,0,0,12.862-19.21,63.579,63.579,0,0,0,2.886-23.25c-.907-13.851-3.628-27.29-10.883-36.937s-17.479-17.067-31-22.261c-10.388-3.958-21.024-6.431-37.514-7.338V316.066L628.82,336.678v32.155H602.437v-33.8l-33.8-18.963v52.767H496.821l23.085,39.575c7.132.008,11.963.668,14.428,1.9a10.9,10.9,0,0,1,5.359,4.947c1.072,2.061,1.567,6.926,1.567,14.428v142.8c0,7.42-.495,12.2-1.567,14.346s-1.649,4.04-4.2,5.194-2.638,1.072-9.729,1.072h-.083l-28.857,39.575h71.73v52.767h33.8V632.667h26.383v52.767h32.979v-53.1c21.437-1.072,36.689-3.875,48.974-8.492,15.912-5.936,28.115-14.593,36.854-25.971S759.83,569.1,760.572,555.66C761.15,543.705,759.83,528.287,756.12,519.878ZM602.354,413.355h.008v-1.1h23.052c12.969,0,56.188-4.32,56.906,30.976s-56.906,33.853-56.906,33.853H602.363v-2.721h-.008Zm0,100.587h26.383c5.359,0,23.795.816,30.506,1.121a29.27,29.27,0,0,1,8.047,1.435c.948.322,1.847.684,2.82,1.088a41.006,41.006,0,0,1,11.369,5.755,23.75,23.75,0,0,1,5.878,5.524,31.472,31.472,0,0,1,1.946,3.042,30.9,30.9,0,0,1,3.438,8.484,34.412,34.412,0,0,1,1.212,8.838c0,6.423-1.187,11.741-4.114,16.242-3.966,6.645-10.471,11.353-17.792,14.676-18.93,8.608-43.31,8-43.31,8H602.354Z" transform="translate(-197.138 -167.116)" fill="#3f3d56"/>
    <path id="Path_2476" data-name="Path 2476" d="M742.387,244.894a2.835,2.835,0,0,0-1.3-1.44,4.449,4.449,0,0,0-1.174-.479,2.869,2.869,0,0,0,.753-.526,2.7,2.7,0,0,0,.721-1.115,3.81,3.81,0,0,0,.162-1.349,4.117,4.117,0,0,0-.61-2.144,3.82,3.82,0,0,0-1.738-1.292,6.333,6.333,0,0,0-2.1-.426v-3.058l-1.849,1.2v1.866h-1.479v-1.962l-1.9-1.1v3.062H727.85l1.294,2.3a2.017,2.017,0,0,1,.809.11.621.621,0,0,1,.3.287,2.379,2.379,0,0,1,.088.837v8.288a2.377,2.377,0,0,1-.088.833c-.06.124-.092.234-.236.3s-.148.062-.545.062h0l-1.618,2.3h4.021V254.5h1.9V251.44h1.479V254.5h1.849v-3.082a8.765,8.765,0,0,0,2.746-.493,4.517,4.517,0,0,0,2.066-1.507,4.783,4.783,0,0,0,.73-2.45A5.569,5.569,0,0,0,742.387,244.894Zm-8.62-6.182h0v-.064h1.292c.727,0,3.15-.251,3.19,1.8s-3.19,1.965-3.19,1.965h-1.293v-.158h0Zm0,5.838h1.479c.3,0,1.334.047,1.71.065a1.589,1.589,0,0,1,.451.083c.053.019.1.04.158.063a2.271,2.271,0,0,1,.638.334,1.355,1.355,0,0,1,.329.321,2.044,2.044,0,0,1,.3.669,2.075,2.075,0,0,1,.068.513,1.72,1.72,0,0,1-.231.943,2.183,2.183,0,0,1-1,.852,6.229,6.229,0,0,1-2.428.464h-1.479Z" transform="translate(-237.688 -152.548)" fill="#2dd771" opacity="0.3"/>
    <circle id="Ellipse_123" data-name="Ellipse 123" cx="9.671" cy="9.671" r="9.671" transform="translate(648.372 372.94)" fill="#ff6584"/>
    <line id="Line_3" data-name="Line 3" y1="110.109" transform="translate(734.279 377.772)" fill="#3f3d56" stroke="#3f3d56" stroke-miterlimit="10" stroke-width="2"/>
    <circle id="Ellipse_124" data-name="Ellipse 124" cx="15.571" cy="15.571" r="15.571" transform="translate(718.708 362.201)" fill="#3f3d56"/>
    <path id="Path_2477" data-name="Path 2477" d="M983.1,658.467c-22.492,34.492-16.329,78.361-16.329,78.361s42.629-12.053,65.12-46.545,16.329-78.361,16.329-78.361S1005.591,623.976,983.1,658.467Z" transform="translate(-279.488 -219.045)" fill="#3f3d56"/>
    <path id="Path_2478" data-name="Path 2478" d="M946.525,738.5s-.548-.087-1.555-.291c-.8-.163-1.91-.4-3.262-.716-12.081-2.848-44.2-12.477-65.2-37.792-26.282-31.7-25.175-75.985-25.175-75.985s40.185,6.53,66.665,35q1.721,1.835,3.349,3.8c22.868,27.581,25,64.69,25.169,73.865C946.542,737.751,946.525,738.5,946.525,738.5Z" transform="translate(-259.361 -221.114)" fill="#2dd771"/>
    <path id="Path_2479" data-name="Path 2479" d="M933.1,658.467c22.491,34.492,16.329,78.361,16.329,78.361s-42.629-12.053-65.12-46.545-16.329-78.361-16.329-78.361S910.612,623.976,933.1,658.467Z" transform="translate(-262.148 -219.045)" fill="none" stroke="#3f3d56" stroke-miterlimit="10" stroke-width="2"/>
    <path id="Path_2480" data-name="Path 2480" d="M960.609,743.827c-.594.717-1.118,1.328-1.549,1.829-.955,1.089-1.5,1.66-1.5,1.66s-.658-.827-1.765-2.377c-6.075-8.469-25.617-38.584-24.109-73.369q.122-2.735.4-5.411,1.721,1.835,3.349,3.8C958.308,697.543,960.441,734.653,960.609,743.827Z" transform="translate(-273.451 -228.564)" opacity="0.1"/>
    <path id="Path_2481" data-name="Path 2481" d="M994.824,659.648c-1.778,41.139-32.316,73.231-32.316,73.231s-27.656-34.607-25.878-75.746S968.946,583.9,968.946,583.9,996.6,618.509,994.824,659.648Z" transform="translate(-274.318 -214.126)" fill="#2dd771"/>
    <line id="Line_4" data-name="Line 4" y1="146.133" x2="6.714" transform="translate(688.191 371.454)" fill="none" stroke="#3f3d56" stroke-miterlimit="10" stroke-width="2"/>
    <line id="Line_5" data-name="Line 5" x2="697.527" transform="translate(47.384 517.747)" fill="none" stroke="#3f3d56" stroke-miterlimit="10" stroke-width="2"/>
    <circle id="Ellipse_125" data-name="Ellipse 125" cx="35.23" cy="35.23" r="35.23" transform="translate(160.3 269.073)" fill="#2dd771"/>
    <circle id="Ellipse_126" data-name="Ellipse 126" cx="35.23" cy="35.23" r="35.23" transform="translate(100.418 351.986)" fill="#2dd771"/>
    <circle id="Ellipse_127" data-name="Ellipse 127" cx="35.23" cy="35.23" r="35.23" transform="translate(26.718 418.201)" fill="#2dd771"/>
    <line id="Line_6" data-name="Line 6" y1="63.905" transform="translate(61.916 453.237)" fill="#3f3d56" stroke="#3f3d56" stroke-miterlimit="10" stroke-width="2"/>
    <circle id="Ellipse_128" data-name="Ellipse 128" cx="9.037" cy="9.037" r="9.037" transform="translate(52.879 444.2)" fill="#3f3d56"/>
    <path id="Path_2482" data-name="Path 2482" d="M202.528,727.623s-1.291-27.767-27.757-24.54" transform="translate(-140.612 -234.999)" fill="#3f3d56"/>
    <line id="Line_7" data-name="Line 7" y1="213.16" transform="translate(195.552 304.432)" fill="#3f3d56" stroke="#3f3d56" stroke-miterlimit="10" stroke-width="2"/>
    <circle id="Ellipse_129" data-name="Ellipse 129" cx="9.037" cy="9.037" r="9.037" transform="translate(186.515 295.294)" fill="#3f3d56"/>
    <circle id="Ellipse_130" data-name="Ellipse 130" cx="9.037" cy="9.037" r="9.037" transform="translate(158.758 449.516)" fill="#3f3d56"/>
    <path id="Path_2483" data-name="Path 2483" d="M364.613,555.235s-1.291-27.767-27.757-24.54" transform="translate(-169.061 -204.742)" fill="#3f3d56"/>
    <path id="Path_2484" data-name="Path 2484" d="M364.613,650.709s-1.291-27.767-27.757-24.54" transform="translate(-169.061 -221.499)" fill="#3f3d56"/>
    <path id="Path_2485" data-name="Path 2485" d="M364.613,748.133s5.81-53.972-27.757-56.554" transform="translate(-169.061 -233.026)" fill="none" stroke="#3f3d56" stroke-miterlimit="10" stroke-width="2"/>
    <circle id="Ellipse_131" data-name="Ellipse 131" cx="9.037" cy="9.037" r="9.037" transform="translate(214.276 449.516)" fill="#3f3d56"/>
    <path id="Path_2486" data-name="Path 2486" d="M370.445,748.133s-5.81-53.972,27.757-56.554" transform="translate(-174.889 -233.026)" fill="none" stroke="#3f3d56" stroke-miterlimit="10" stroke-width="2"/>
    <circle id="Ellipse_132" data-name="Ellipse 132" cx="9.037" cy="9.037" r="9.037" transform="translate(214.826 364.744)" fill="#3f3d56"/>
    <path id="Path_2487" data-name="Path 2487" d="M371.112,642.435s-5.81-51.093,27.757-53.675" transform="translate(-175.006 -214.979)" fill="none" stroke="#3f3d56" stroke-miterlimit="10" stroke-width="2"/>
    <line id="Line_8" data-name="Line 8" y1="130.114" transform="translate(135.68 387.177)" fill="#3f3d56" stroke="#3f3d56" stroke-miterlimit="10" stroke-width="2"/>
    <circle id="Ellipse_133" data-name="Ellipse 133" cx="9.037" cy="9.037" r="9.037" transform="translate(126.643 378.14)" fill="#3f3d56"/>
    <path id="Path_2488" data-name="Path 2488" d="M291.995,644.367s-1.291-27.767-27.757-24.54" transform="translate(-156.315 -220.386)" fill="#3f3d56"/>
    <path id="Path_2489" data-name="Path 2489" d="M291.995,747.891s5.81-53.4-27.757-55.979" transform="translate(-156.315 -233.084)" fill="none" stroke="#3f3d56" stroke-miterlimit="10" stroke-width="2"/>
    <circle id="Ellipse_134" data-name="Ellipse 134" cx="9.037" cy="9.037" r="9.037" transform="translate(98.886 449.791)" fill="#3f3d56"/>
    <circle id="Ellipse_135" data-name="Ellipse 135" cx="14.841" cy="14.841" r="14.841" transform="translate(617.109 289.936)" fill="#f2f2f2"/>
    <path id="Path_2490" data-name="Path 2490" d="M694.515,635.962c-18.93,8.607-43.31,8-43.31,8H624.821v-5.038c10.751-3,25.617-4.856,42.049-4.856A192.617,192.617,0,0,1,694.515,635.962Z" transform="translate(-219.604 -222.931)" opacity="0.1"/>
    <path id="Path_2491" data-name="Path 2491" d="M722.546,650.959c0,9.111-26.581,16.49-59.363,16.49s-59.363-7.379-59.363-16.49c0-4.543,6.612-8.657,17.314-11.633v5.038h26.383s24.38.61,43.31-8C709.684,639.12,722.546,644.619,722.546,650.959Z" transform="translate(-215.918 -223.335)" opacity="0.1"/>
    <rect id="Rectangle_640" data-name="Rectangle 640" width="25.258" height="25.303" transform="translate(429.59 324.952)" fill="#2f2e41"/>
    <path id="Path_2492" data-name="Path 2492" d="M664.106,550.622s2.091,7.317-1.568,7.84a14.284,14.284,0,0,0-6.272,2.613l6.795,8.885H675.6l7.84-7.84s-10.453-7.84-8.363-12.544S664.106,550.622,664.106,550.622Z" transform="translate(-225.123 -207.777)" fill="#ffb9b9"/>
    <path id="Path_2493" data-name="Path 2493" d="M664.106,550.622s2.091,7.317-1.568,7.84a14.284,14.284,0,0,0-6.272,2.613l6.795,8.885H675.6l7.84-7.84s-10.453-7.84-8.363-12.544S664.106,550.622,664.106,550.622Z" transform="translate(-225.123 -207.777)" opacity="0.1"/>
    <path id="Path_2494" data-name="Path 2494" d="M536.239,524.494l12.022,4.181,8.362.523-.523-7.317-17.247-5.1Z" transform="translate(-94.121 -90.705)" fill="#ffb9b9"/>
    <path id="Path_2495" data-name="Path 2495" d="M688.279,658.163s0,7.317,1.045,7.317,15.157-1.568,19.338,0,10.453-4.181,7.317-7.317-8.251-7.84-11.443-6.795-16.258,3.659-16.258,3.659Z" transform="translate(-230.742 -225.942)" fill="#2f2e41"/>
    <path id="Path_2496" data-name="Path 2496" d="M640.934,651.4s-6.272,12.544-2.09,13.589,8.885-.523,9.408-1.045,7.84-2.613,8.885-1.568,1.045-4.181,1.045-4.181Z" transform="translate(-221.813 -225.974)" fill="#2f2e41"/>
    <path id="Path_2497" data-name="Path 2497" d="M646.9,630.48s-9.931,13.589-2.613,17.248,42.336,3.659,44.949,0,3.659-15.157,0-16.2S646.9,630.48,646.9,630.48Z" transform="translate(-222.548 -222.302)" fill="#2f2e41"/>
    <path id="Path_2498" data-name="Path 2498" d="M646.9,630.48s-9.931,13.589-2.613,17.248,42.336,3.659,44.949,0,3.659-15.157,0-16.2S646.9,630.48,646.9,630.48Z" transform="translate(-222.548 -222.302)" opacity="0.2"/>
    <circle id="Ellipse_136" data-name="Ellipse 136" cx="12.021" cy="12.021" r="12.021" transform="translate(431.143 322.461)" fill="#ffb9b9"/>
    <path id="Path_2499" data-name="Path 2499" d="M648.025,563.472l10.453-2.091s2.613,8.363,10.976,6.795,10.453-6.795,10.453-6.795,6.272,2.613,6.795,2.613,7.317,2.613,7.317,4.181-7.84,17.248-7.84,17.248l1.045,28.224L648.548,612.6l2.613-27.7Z" transform="translate(-223.677 -210.174)" fill="#2dd771"/>
    <path id="Path_2500" data-name="Path 2500" d="M640.675,580.4s-3.136,27.7-1.045,29.792,10.453,7.84,10.453,7.84v-6.272l-4.181-7.84,4.181-18.293Z" transform="translate(-222.077 -213.512)" fill="#ffb9b9"/>
    <path id="Path_2501" data-name="Path 2501" d="M704.382,579.448s-1.829,28.485-1.829,29.531-4.7,4.7-6.272,4.7-2.613-2.613-2.613-2.613l3.659-4.181-2.613-21.429Z" transform="translate(-231.688 -213.345)" fill="#ffb9b9"/>
    <path id="Path_2502" data-name="Path 2502" d="M695.467,626.708s23.52-13.067,24.042,0S707.489,645,707.489,645s-32.405,9.717-33.712,6.165-3.92-9.3-1.829-9.824,4.7-1.568,5.75-.523,14.112-7.84,14.112-7.84Z" transform="translate(-227.738 -220.62)" fill="#2f2e41"/>
    <path id="Path_2503" data-name="Path 2503" d="M710.839,626.042s-4.7,2.091-6.272,3.659-8.363,4.181-8.363,4.181" transform="translate(-232.133 -221.523)" fill="none" stroke="#000" stroke-miterlimit="10" stroke-width="2" opacity="0.2"/>
    <path id="Path_2504" data-name="Path 2504" d="M649.338,564.962l-3.136-1.045s-11.5,12.021-7.84,15.157,5.749,4.181,6.795,5.227,6.272,1.568,6.272,1.568Z" transform="translate(-221.855 -210.619)" fill="#2dd771"/>
    <path id="Path_2505" data-name="Path 2505" d="M696.547,568.354l4.7,1.045s3.659,7.84,4.7,8.885-1.568.523-3.136,2.613-3.136,5.749-6.272,5.749-7.317-5.227-7.317-5.227Z" transform="translate(-230.909 -211.397)" fill="#2dd771"/>
    <path id="Path_2506" data-name="Path 2506" d="M643.438,632.05s-19.861-14.112-26.656-3.659,29.269,24.565,34.5,26.656,9.931,4.181,9.931,4.181,4.7-11.5,4.7-13.589-3.659-2.091-4.7-2.091-5.749-1.045-6.795-2.613S643.438,632.05,643.438,632.05Z" transform="translate(-218.044 -221.258)" fill="#2f2e41"/>
    <path id="Path_2507" data-name="Path 2507" d="M635.98,629.212s5.227,4.181,9.931,5.227,6.272,3.659,6.272,3.659" transform="translate(-221.563 -222.079)" fill="none" stroke="#000" stroke-miterlimit="10" stroke-width="2" opacity="0.2"/>
    <path id="Path_2508" data-name="Path 2508" d="M644.92,604.775l.418,22.13a2.77,2.77,0,0,0,2.8,2.718l41.182-.463a2.77,2.77,0,0,0,2.735-2.611l1.25-21.667a2.771,2.771,0,0,0-2.766-2.93H647.69a2.77,2.77,0,0,0-2.769,2.823Z" transform="translate(-223.132 -217.295)" fill="#575a89"/>
    <path id="Path_2509" data-name="Path 2509" d="M638.854,556.1c1.122-2.475,2.629-4.8,3.347-7.419.861-3.141.526-6.465.423-9.72a30.52,30.52,0,0,1,.729-8.577,14.746,14.746,0,0,1,4.24-7.381c5.477-4.89,15.5-5.241,22.19-3.205,2.637.8,5.445,2.331,6.1,5.008.1.4.143.821.253,1.222.547,1.993,2.587,3.255,3.323,5.187.952,2.5-.516,5.216-.708,7.883-.224,3.114,1.307,6.055,2.815,8.788.9,1.625,1.83,3.355,1.74,5.209a6.577,6.577,0,0,1-.9,2.871,10.949,10.949,0,0,1-9.2,5.273,5.77,5.77,0,0,1-3.445-.813c-1.632-1.124-2.11-3.387-1.77-5.34a25.9,25.9,0,0,1,2.107-5.541c.238-.559.453-1.128.652-1.7a11.7,11.7,0,1,0-7.715,1.309,15.844,15.844,0,0,1-.767,8.809,33.27,33.27,0,0,1-3.7,6.45,8.906,8.906,0,0,1-2.357,2.637,8.363,8.363,0,0,1-2.007.857,20.805,20.805,0,0,1-9.133,1.286c-3.071-.427-6.113-2.28-7.16-5.2C637,561.433,637.731,558.575,638.854,556.1Z" transform="translate(-221.829 -202.669)" fill="#2f2e41"/>
    <ellipse id="Ellipse_137" data-name="Ellipse 137" cx="12.758" cy="7.229" rx="12.758" ry="7.229" transform="translate(429.824 320.503)" fill="#2f2e41"/>
    <path id="Path_2510" data-name="Path 2510" d="M904.145,504.155a2.2,2.2,0,0,0-1.009-1.119,3.446,3.446,0,0,0-.912-.372,2.23,2.23,0,0,0,.586-.409,2.1,2.1,0,0,0,.56-.866,2.962,2.962,0,0,0,.126-1.049,3.2,3.2,0,0,0-.474-1.666,2.969,2.969,0,0,0-1.35-1,4.922,4.922,0,0,0-1.634-.331v-2.376l-1.437.93v1.45h-1.149v-1.524l-1.473-.855v2.38H892.85l1.006,1.785a1.566,1.566,0,0,1,.628.086.483.483,0,0,1,.234.223,1.844,1.844,0,0,1,.068.651v6.44a1.851,1.851,0,0,1-.068.647c-.047.1-.072.182-.183.234s-.115.048-.424.048h0l-1.257,1.785h3.125v2.38h1.473v-2.38H898.6v2.38h1.437v-2.395a6.81,6.81,0,0,0,2.133-.383,3.509,3.509,0,0,0,1.605-1.171,3.715,3.715,0,0,0,.568-1.9A4.328,4.328,0,0,0,904.145,504.155Zm-6.7-4.8h0V499.3h1c.565,0,2.448-.195,2.479,1.4s-2.479,1.527-2.479,1.527h-1V502.1h0Zm0,4.536H898.6c.233,0,1.037.037,1.329.051a1.242,1.242,0,0,1,.351.065c.041.015.08.031.123.049a1.766,1.766,0,0,1,.5.26,1.05,1.05,0,0,1,.256.249,1.59,1.59,0,0,1,.235.52,1.618,1.618,0,0,1,.053.4,1.335,1.335,0,0,1-.179.733,1.7,1.7,0,0,1-.775.662,4.84,4.84,0,0,1-1.887.361h-1.149Z" transform="translate(-266.648 -198.516)" fill="#2dd771" opacity="0.3"/>
    <circle id="Ellipse_138" data-name="Ellipse 138" cx="14.841" cy="14.841" r="14.841" transform="translate(38.323 341.878)" fill="#f2f2f2"/>
    <path id="Path_2511" data-name="Path 2511" d="M202.145,567.155a2.2,2.2,0,0,0-1.009-1.119,3.453,3.453,0,0,0-.912-.372,2.235,2.235,0,0,0,.585-.409,2.1,2.1,0,0,0,.56-.866,2.961,2.961,0,0,0,.126-1.049,3.2,3.2,0,0,0-.474-1.666,2.969,2.969,0,0,0-1.35-1,4.921,4.921,0,0,0-1.634-.331v-2.376l-1.437.93v1.45h-1.149v-1.525l-1.473-.855v2.38H190.85l1.006,1.785a1.566,1.566,0,0,1,.629.086.482.482,0,0,1,.233.223,1.848,1.848,0,0,1,.068.651v6.44a1.849,1.849,0,0,1-.068.647c-.047.1-.072.182-.183.234s-.115.048-.424.048h0l-1.257,1.785h3.125v2.38h1.473v-2.38H196.6v2.38h1.437v-2.395a6.8,6.8,0,0,0,2.133-.383,3.507,3.507,0,0,0,1.605-1.171,3.717,3.717,0,0,0,.567-1.9A4.327,4.327,0,0,0,202.145,567.155Zm-6.7-4.8h0V562.3h1c.565,0,2.448-.195,2.479,1.4s-2.479,1.527-2.479,1.527h-1V565.1h0Zm0,4.536H196.6c.233,0,1.037.037,1.329.051a1.232,1.232,0,0,1,.351.065c.041.015.08.031.123.049a1.758,1.758,0,0,1,.5.259,1.05,1.05,0,0,1,.256.249,1.672,1.672,0,0,1,.287.918,1.336,1.336,0,0,1-.179.733,1.7,1.7,0,0,1-.775.662,4.841,4.841,0,0,1-1.887.361h-1.149Z" transform="translate(-143.434 -209.574)" fill="#2dd771" opacity="0.3"/>
  </g>
</svg>
