<svg xmlns="http://www.w3.org/2000/svg" width="17.455" height="24" viewBox="0 0 17.455 24">
  <g id="Group_29" data-name="Group 29" transform="translate(-18 -958.362)">
    <path id="Path_63" data-name="Path 63" d="M18,958.362v24H31.091v-3.818a.578.578,0,0,1,.545-.545h3.818V958.362ZM20.182,960h4.909a.567.567,0,0,1,.545.546v3.818a.567.567,0,0,1-.545.546H20.182a.567.567,0,0,1-.545-.546v-3.818A.584.584,0,0,1,20.182,960Zm.545,1.091v2.727h3.818v-2.727Zm6.545.818h6a.545.545,0,1,1,0,1.091h-6a.545.545,0,1,1,0-1.091Zm-1.142,4.082a.546.546,0,0,1,.5.861L24.179,970.4a.567.567,0,0,1-.759.145l-1.636-1.091a.55.55,0,0,1,.614-.912l1.185.793,2.148-3.1A.554.554,0,0,1,26.131,965.99Zm-5.949.554h3.273a.545.545,0,1,1,0,1.091H20.727v3.818h3.818a.546.546,0,1,1,1.091,0V972a.567.567,0,0,1-.545.545H20.182a.567.567,0,0,1-.545-.545v-4.909A.593.593,0,0,1,20.182,966.544ZM27.273,969h6a.545.545,0,1,1,0,1.091h-6a.545.545,0,1,1,0-1.091Zm-7.091,5.182h4.909a.567.567,0,0,1,.545.546v3.818a.567.567,0,0,1-.545.546H20.182a.567.567,0,0,1-.545-.546v-3.818A.584.584,0,0,1,20.182,974.18Zm.545,1.091V978h3.818v-2.727Zm6.545.818h6a.545.545,0,1,1,0,1.091h-6a.545.545,0,1,1,0-1.091Zm4.909,3v2.727l2.727-2.727Z" transform="translate(0 0)" fill="#aaa"/>
  </g>
</svg>
